<svg width="38" height="38" viewBox="0 0 38 38" fill="none" xmlns="http://www.w3.org/2000/svg">
<path d="M35.473 18.3475C35.3704 18.3154 35.2715 18.3072 35.1758 18.3231C34.9699 18.3571 34.8015 18.4662 34.6696 18.6508L33.4019 20.4206C33.2835 20.5867 33.2409 20.7723 33.2749 20.9781L34.2718 27.0054C34.4445 28.0498 34.2213 29.0046 33.6003 29.8715C32.9797 30.738 32.1472 31.2577 31.1029 31.4304L11.3586 34.6958C10.3143 34.8686 9.35885 34.6446 8.49238 34.0241C7.62569 33.4032 7.1063 32.5712 6.93356 31.5268L3.66816 11.7829C3.49548 10.7387 3.71927 9.78342 4.33993 8.91667C4.96045 8.05012 5.79293 7.53057 6.83724 7.35785L26.5817 4.09235C26.9299 4.03478 27.2936 4.02338 27.6731 4.05821C27.7733 4.07392 27.8471 4.07819 27.894 4.07044C28.1 4.03637 28.269 3.92739 28.4009 3.74307L29.3714 2.38791C29.5298 2.16694 29.5633 1.92555 29.471 1.66474C29.3816 1.41941 29.209 1.26095 28.9534 1.18957C28.0342 0.935795 27.0755 0.89053 26.0788 1.05537L6.33494 4.32076C4.45229 4.63212 2.95298 5.56682 1.8372 7.12481C0.721602 8.68295 0.319364 10.4031 0.630745 12.2858L3.89622 32.0302C4.20755 33.9126 5.14223 35.4118 6.70014 36.5276C8.2582 37.6438 9.9786 38.0459 11.8613 37.7346L31.6055 34.4691C33.4879 34.1578 34.9874 33.2231 36.1031 31.6647C37.219 30.1067 37.6218 28.3864 37.3105 26.5039L36.0623 18.9569C36.0072 18.625 35.8103 18.422 35.473 18.3475Z" fill="#333333"/>
</svg>
