<svg width="32" height="29" viewBox="0 0 32 29" fill="none" xmlns="http://www.w3.org/2000/svg">
<path d="M31.1771 2.74065L28.1347 0.561733C27.6922 0.244923 27.2096 0.129697 26.6874 0.216069C26.1658 0.302331 25.7457 0.566848 25.4291 1.00919L12.6142 18.9028L5.34102 13.6936C4.89842 13.3766 4.41606 13.2616 3.89415 13.3479C3.37216 13.4342 2.95268 13.6984 2.63565 14.1411L0.457003 17.1832C0.140109 17.6256 0.0246895 18.1081 0.111061 18.6303C0.197392 19.1523 0.461965 19.5717 0.904478 19.8888L12.7965 28.4054C13.2391 28.7225 13.7214 28.8375 14.2433 28.7511C14.7652 28.6648 15.1848 28.4008 15.5018 27.958L31.6243 5.44597C31.941 5.00361 32.0566 4.52105 31.9703 3.99907C31.8839 3.47708 31.6196 3.05746 31.1771 2.74065Z" fill="#333333"/>
</svg>
